<mxfile host="app.diagrams.net" modified="2021-12-26T12:01:18.786Z" agent="5.0 (Windows NT 10.0; Win64; x64) AppleWebKit/537.36 (KHTML, like Gecko) Chrome/96.0.4664.110 Safari/537.36" etag="d7Ft0EdhNpbQ8NaZzgC_" version="16.1.0" type="github">
  <diagram id="LALl4ICxWkcnhLGOT95z" name="Page-1">
    <mxGraphModel dx="1422" dy="794" grid="1" gridSize="10" guides="1" tooltips="1" connect="1" arrows="1" fold="1" page="1" pageScale="1" pageWidth="827" pageHeight="1169" math="0" shadow="0">
      <root>
        <mxCell id="0" />
        <mxCell id="1" parent="0" />
        <mxCell id="cfl_LdG2-ow4Um4XebHh-4" value="" style="edgeStyle=orthogonalEdgeStyle;rounded=0;orthogonalLoop=1;jettySize=auto;html=1;" edge="1" parent="1" source="cfl_LdG2-ow4Um4XebHh-1" target="cfl_LdG2-ow4Um4XebHh-2">
          <mxGeometry relative="1" as="geometry" />
        </mxCell>
        <mxCell id="cfl_LdG2-ow4Um4XebHh-1" value="Material App" style="rounded=0;whiteSpace=wrap;html=1;" vertex="1" parent="1">
          <mxGeometry x="350" y="380" width="120" height="60" as="geometry" />
        </mxCell>
        <mxCell id="cfl_LdG2-ow4Um4XebHh-6" value="" style="edgeStyle=orthogonalEdgeStyle;rounded=0;orthogonalLoop=1;jettySize=auto;html=1;" edge="1" parent="1" source="cfl_LdG2-ow4Um4XebHh-2" target="cfl_LdG2-ow4Um4XebHh-5">
          <mxGeometry relative="1" as="geometry" />
        </mxCell>
        <mxCell id="cfl_LdG2-ow4Um4XebHh-8" value="" style="edgeStyle=orthogonalEdgeStyle;rounded=0;orthogonalLoop=1;jettySize=auto;html=1;" edge="1" parent="1" source="cfl_LdG2-ow4Um4XebHh-2" target="cfl_LdG2-ow4Um4XebHh-7">
          <mxGeometry relative="1" as="geometry" />
        </mxCell>
        <mxCell id="cfl_LdG2-ow4Um4XebHh-10" value="" style="edgeStyle=orthogonalEdgeStyle;rounded=0;orthogonalLoop=1;jettySize=auto;html=1;" edge="1" parent="1" source="cfl_LdG2-ow4Um4XebHh-2" target="cfl_LdG2-ow4Um4XebHh-9">
          <mxGeometry relative="1" as="geometry" />
        </mxCell>
        <mxCell id="cfl_LdG2-ow4Um4XebHh-2" value="Scaffold" style="rounded=0;whiteSpace=wrap;html=1;" vertex="1" parent="1">
          <mxGeometry x="354" y="470" width="120" height="60" as="geometry" />
        </mxCell>
        <mxCell id="cfl_LdG2-ow4Um4XebHh-19" value="" style="edgeStyle=orthogonalEdgeStyle;rounded=0;orthogonalLoop=1;jettySize=auto;html=1;" edge="1" parent="1" source="cfl_LdG2-ow4Um4XebHh-5" target="cfl_LdG2-ow4Um4XebHh-18">
          <mxGeometry relative="1" as="geometry" />
        </mxCell>
        <mxCell id="cfl_LdG2-ow4Um4XebHh-5" value="Center" style="rounded=0;whiteSpace=wrap;html=1;" vertex="1" parent="1">
          <mxGeometry x="540" y="610" width="120" height="60" as="geometry" />
        </mxCell>
        <mxCell id="cfl_LdG2-ow4Um4XebHh-13" value="" style="edgeStyle=orthogonalEdgeStyle;rounded=0;orthogonalLoop=1;jettySize=auto;html=1;" edge="1" parent="1" source="cfl_LdG2-ow4Um4XebHh-7" target="cfl_LdG2-ow4Um4XebHh-12">
          <mxGeometry relative="1" as="geometry" />
        </mxCell>
        <mxCell id="cfl_LdG2-ow4Um4XebHh-17" value="" style="edgeStyle=orthogonalEdgeStyle;rounded=0;orthogonalLoop=1;jettySize=auto;html=1;" edge="1" parent="1" source="cfl_LdG2-ow4Um4XebHh-7" target="cfl_LdG2-ow4Um4XebHh-16">
          <mxGeometry relative="1" as="geometry" />
        </mxCell>
        <mxCell id="cfl_LdG2-ow4Um4XebHh-7" value="AppBar" style="rounded=0;whiteSpace=wrap;html=1;" vertex="1" parent="1">
          <mxGeometry x="354" y="610" width="120" height="60" as="geometry" />
        </mxCell>
        <mxCell id="cfl_LdG2-ow4Um4XebHh-9" value="Color" style="rounded=0;whiteSpace=wrap;html=1;" vertex="1" parent="1">
          <mxGeometry x="90" y="610" width="120" height="60" as="geometry" />
        </mxCell>
        <mxCell id="cfl_LdG2-ow4Um4XebHh-12" value="Color" style="rounded=0;whiteSpace=wrap;html=1;" vertex="1" parent="1">
          <mxGeometry x="190" y="730" width="120" height="60" as="geometry" />
        </mxCell>
        <mxCell id="cfl_LdG2-ow4Um4XebHh-16" value="Text" style="rounded=0;whiteSpace=wrap;html=1;" vertex="1" parent="1">
          <mxGeometry x="354" y="750" width="120" height="60" as="geometry" />
        </mxCell>
        <mxCell id="cfl_LdG2-ow4Um4XebHh-18" value="Image" style="rounded=0;whiteSpace=wrap;html=1;" vertex="1" parent="1">
          <mxGeometry x="540" y="750" width="120" height="60" as="geometry" />
        </mxCell>
      </root>
    </mxGraphModel>
  </diagram>
</mxfile>
